<svg width="271" height="270" viewBox="0 0 271 270" fill="none" xmlns="http://www.w3.org/2000/svg">
<g clip-path="url(#clip0_19_466)">
<g filter="url(#filter0_f_19_466)">
<path d="M138.452 211.711C94.0753 211.711 58.1011 175.616 58.1011 131.091C58.1011 86.566 94.0753 50.4712 138.452 50.4712C182.828 50.4712 218.802 86.566 218.802 131.091C218.802 175.616 182.828 211.711 138.452 211.711Z" fill="#F1B1D5" fill-opacity="0.4"/>
</g>
<path d="M136.979 203.418C97.0062 203.418 64.6023 171.014 64.6023 131.041C64.6023 91.069 97.0062 58.665 136.979 58.665C176.951 58.665 209.355 91.069 209.355 131.041C209.355 171.014 176.951 203.418 136.979 203.418Z" fill="#F1B1D5"/>
<path d="M49.4231 105.376L61.1571 117.11L74.4889 113.24C74.9383 113.116 75.0881 112.541 74.7636 112.192L64.0532 101.481C63.9034 101.332 63.6537 101.257 63.429 101.332L49.4231 105.376Z" fill="#F48914" stroke="#17005E" stroke-width="0.674081" stroke-miterlimit="10" stroke-linecap="round" stroke-linejoin="round"/>
<path d="M73.2905 112.217L63.9033 102.83L60.7077 115.537L73.2905 112.217Z" fill="#17005E" stroke="#17005E" stroke-width="0.674081" stroke-miterlimit="10" stroke-linecap="round" stroke-linejoin="round"/>
<path d="M72.6415 111.568C71.6179 110.544 70.0949 110.17 68.7218 110.569L68.5221 110.619C65.7009 111.468 63.1544 112.991 61.0822 115.063L60.1086 116.037L73.3156 112.217L72.6415 111.568Z" fill="#DEFAE5" stroke="#17005E" stroke-width="0.674081" stroke-miterlimit="10" stroke-linecap="round" stroke-linejoin="round"/>
<path d="M64.8271 103.729C65.8507 104.752 66.2252 106.275 65.8257 107.648L65.7758 107.848C64.9269 110.669 63.404 113.216 61.3318 115.288L60.3582 116.261L64.1779 103.054L64.8271 103.729Z" fill="#DEFAE5" stroke="#17005E" stroke-width="0.674081" stroke-miterlimit="10" stroke-linecap="round" stroke-linejoin="round"/>
<path d="M49.0985 105.052L61.1571 117.11L65.2016 103.129C65.2765 102.905 65.2016 102.68 65.0518 102.505L53.9919 91.4452C53.6673 91.1207 53.0931 91.2455 52.9433 91.7198L49.0985 105.052Z" fill="#F48914" stroke="#17005E" stroke-width="0.674081" stroke-miterlimit="10" stroke-linecap="round" stroke-linejoin="round"/>
<path d="M51.8697 105.027L59.4344 112.591C59.6591 112.816 60.0586 112.716 60.1584 112.417L62.7299 103.554C62.8048 103.304 62.7299 103.004 62.5302 102.83L54.9655 95.265C54.7408 95.0403 54.3414 95.1402 54.2415 95.4398L51.67 104.303C51.6201 104.552 51.67 104.827 51.8697 105.027Z" fill="#F6A143" stroke="#17005E" stroke-width="0.674081" stroke-miterlimit="10" stroke-linecap="round" stroke-linejoin="round"/>
<path d="M49.0497 104.765L61.8308 117.546L60.9658 118.411L48.1847 105.63L49.0497 104.765Z" fill="#F48914" stroke="#17005E" stroke-width="0.674081" stroke-miterlimit="10" stroke-linecap="round" stroke-linejoin="round"/>
<path d="M49.0494 104.761L60.4888 116.2L59.6238 117.065L48.1843 105.626L49.0494 104.761Z" fill="#F48914" stroke="#17005E" stroke-width="0.674081" stroke-miterlimit="10" stroke-linecap="round" stroke-linejoin="round"/>
<path d="M221.578 172.173L238.38 160.989L239.279 147.632C239.304 147.182 238.754 147.008 238.28 147.332L222.901 157.543C222.676 157.693 222.526 157.918 222.501 158.142L221.578 172.173Z" fill="#17005E" stroke="#17005E" stroke-width="0.674081" stroke-miterlimit="10" stroke-linecap="round" stroke-linejoin="round"/>
<path d="M237.756 148.78L224.299 157.718L236.557 161.388L237.756 148.78Z" fill="#DEFAE5" stroke="#17005E" stroke-width="0.674081" stroke-miterlimit="10" stroke-linecap="round" stroke-linejoin="round"/>
<path d="M236.832 149.404C235.359 150.378 234.385 151.876 234.31 153.274V153.474C234.135 156.295 234.81 158.891 236.208 161.014L236.882 162.012L237.781 148.78L236.832 149.404Z" fill="#DEFAE5" stroke="#17005E" stroke-width="0.674081" stroke-miterlimit="10" stroke-linecap="round" stroke-linejoin="round"/>
<path d="M221.403 154.473C222.876 153.199 224.898 152.8 226.646 153.399L226.895 153.499C230.416 154.722 233.486 156.844 235.883 159.616L237.007 160.914L220.454 155.272L221.403 154.473Z" fill="#DEFAE5" stroke="#17005E" stroke-width="0.674081" stroke-miterlimit="10" stroke-linecap="round" stroke-linejoin="round"/>
<path d="M221.078 172.473L238.38 160.989L220.454 154.373C220.08 154.248 219.68 154.298 219.356 154.498L204.226 164.559C203.552 165.008 203.677 166.057 204.426 166.331L221.078 172.473Z" fill="#45337E" stroke="#17005E" stroke-width="0.674081" stroke-miterlimit="10" stroke-linecap="round" stroke-linejoin="round"/>
<path d="M220.429 170.076L232.463 162.087L219.705 157.194L207.672 165.208L220.429 170.076Z" fill="#17005E" stroke="#17005E" stroke-width="0.674081" stroke-miterlimit="10" stroke-linecap="round" stroke-linejoin="round"/>
<path d="M220.706 172.488L239.047 160.3L239.876 161.547L221.535 173.735L220.706 172.488Z" fill="#45337E" stroke="#17005E" stroke-width="0.674081" stroke-miterlimit="10" stroke-linecap="round" stroke-linejoin="round"/>
<path d="M220.717 172.492L237.123 161.589L237.952 162.837L221.546 173.739L220.717 172.492Z" fill="#17005E" stroke="#17005E" stroke-width="0.674081" stroke-miterlimit="10" stroke-linecap="round" stroke-linejoin="round"/>
<path d="M80.6305 206.064H97.9569V214.078H80.6305V206.064Z" fill="#E556A8" stroke="#17005E" stroke-width="0.674081" stroke-miterlimit="10" stroke-linecap="round" stroke-linejoin="round"/>
<path d="M138.402 224.115L140.349 231.03H157.351L155.753 224.115H138.402Z" fill="#E556A8" stroke="#17005E" stroke-width="0.674081" stroke-miterlimit="10" stroke-linecap="round" stroke-linejoin="round"/>
<path d="M158.849 240.966H125.045C124.645 240.966 124.321 240.617 124.371 240.217C124.895 235.923 128.216 232.528 132.485 231.904L138.502 231.03L140.699 228.733C141.198 228.209 141.897 227.909 142.621 227.909H146.491C147.564 227.909 148.538 228.558 148.962 229.532L149.387 230.531L154.155 230.481L156.502 229.083C157.151 228.708 157.975 229.033 158.175 229.757L160.596 238.67C160.896 239.843 160.022 240.966 158.849 240.966Z" fill="#2FE055" stroke="#17005E" stroke-width="0.674081" stroke-miterlimit="10" stroke-linecap="round" stroke-linejoin="round"/>
<path d="M86.2229 153.71L117.056 129.094H156.327L155.728 141.302C155.478 146.595 154.58 151.838 153.057 156.906L145.792 181.173L157.75 224.139H138.402L125.769 184.369C125.095 182.271 124.97 180.025 125.419 177.877L130.737 151.588L127.167 148.892L100.229 169.514V206.114H80.6555V165.32C80.6306 160.801 82.7027 156.507 86.2229 153.71Z" fill="#F48914" stroke="#17005E" stroke-width="0.674081" stroke-miterlimit="10" stroke-linecap="round" stroke-linejoin="round"/>
<path d="M156.327 129.094L156.053 134.686L127.417 129.094H156.327Z" fill="#17005E" stroke="#17005E" stroke-width="0.674081" stroke-miterlimit="10" stroke-linecap="round" stroke-linejoin="round"/>
<path d="M118.504 141.777L127.142 148.867L119.453 154.734L118.504 141.777Z" fill="#17005E" stroke="#17005E" stroke-width="0.674081" stroke-miterlimit="10" stroke-linecap="round" stroke-linejoin="round"/>
<path d="M142.896 186.416L145.817 181.148L151.559 201.87L142.896 186.416Z" fill="#17005E" stroke="#17005E" stroke-width="0.674081" stroke-miterlimit="10" stroke-linecap="round" stroke-linejoin="round"/>
<path d="M95.7099 167.467L100.204 169.464V186.94L95.7099 167.467Z" fill="#17005E" stroke="#17005E" stroke-width="0.674081" stroke-miterlimit="10" stroke-linecap="round" stroke-linejoin="round"/>
<path d="M138.402 224.115H155.753L156.402 226.961L138.402 224.115Z" fill="#17005E" stroke="#17005E" stroke-width="0.674081" stroke-miterlimit="10" stroke-linecap="round" stroke-linejoin="round"/>
<path d="M80.6305 206.064L97.9569 209.509V206.064H80.6305Z" fill="#17005E" stroke="#17005E" stroke-width="0.674081" stroke-miterlimit="10" stroke-linecap="round" stroke-linejoin="round"/>
<path d="M125.045 240.966C124.645 240.966 124.321 240.617 124.371 240.217C124.571 238.495 125.245 236.922 126.243 235.599H128.54L131.187 238.245H155.903L157.176 235.674L159.648 235.274L160.571 238.695C160.871 239.843 160.022 240.966 158.824 240.966H125.045Z" fill="#17005E" stroke="#17005E" stroke-width="0.674081" stroke-miterlimit="10" stroke-linecap="round" stroke-linejoin="round"/>
<path d="M99.3051 223.965H65.5012C65.1017 223.965 64.7772 223.615 64.8271 223.216C65.3514 218.922 68.6718 215.526 72.941 214.902L78.9578 214.028L81.1548 211.731C81.6541 211.207 82.3532 210.907 83.0772 210.907H86.922C87.9955 210.907 88.9692 211.557 89.3936 212.53L89.818 213.529L94.5865 213.479L96.9333 212.081C97.5824 211.706 98.4063 212.031 98.606 212.755L101.028 221.668C101.352 222.841 100.478 223.965 99.3051 223.965Z" fill="#2FE055" stroke="#17005E" stroke-width="0.674081" stroke-miterlimit="10" stroke-linecap="round" stroke-linejoin="round"/>
<path d="M65.5012 223.965C65.1017 223.965 64.7772 223.615 64.8271 223.216C65.0268 221.493 65.7009 219.92 66.6996 218.597H68.9964L71.6428 221.243H96.3591L97.6324 218.672L100.104 218.272L101.028 221.693C101.327 222.841 100.478 223.965 99.2801 223.965H65.5012Z" fill="#17005E" stroke="#17005E" stroke-width="0.674081" stroke-miterlimit="10" stroke-linecap="round" stroke-linejoin="round"/>
<path d="M127.666 173.408C131.811 177.103 131.112 183.794 126.318 186.566C126.118 186.69 125.944 186.366 126.143 186.266C130.762 183.595 131.386 177.203 127.417 173.658C127.242 173.508 127.492 173.259 127.666 173.408Z" fill="#17005E"/>
<path d="M87.1715 153.66C87.4711 156.457 87.2464 159.552 86.023 162.099C85.1243 163.971 83.5015 165.719 81.2545 165.569C81.0299 165.544 81.0299 165.195 81.2545 165.22C83.6263 165.369 85.2241 163.247 85.9981 161.275C86.9218 158.878 87.0966 156.182 86.822 153.66C86.797 153.436 87.1465 153.436 87.1715 153.66Z" fill="#17005E"/>
<path d="M152.707 131.666C152.707 131.666 152.657 131.965 152.532 132.514" stroke="#17005E" stroke-width="0.449387" stroke-linecap="round" stroke-linejoin="round"/>
<path d="M152.183 134.237C151.409 138.082 149.736 146.146 147.165 157.68C143.07 175.98 142.921 186.416 142.921 186.416L151.359 222.417" stroke="#17005E" stroke-width="0.449387" stroke-linecap="round" stroke-linejoin="round" stroke-dasharray="3.15 3.15"/>
<path d="M151.534 223.266L151.734 224.114" stroke="#17005E" stroke-width="0.449387" stroke-linecap="round" stroke-linejoin="round"/>
<path d="M122.374 146.595L95.7099 167.467L94.911 205.814" stroke="#17005E" stroke-width="0.449387" stroke-miterlimit="10" stroke-linecap="round" stroke-linejoin="round" stroke-dasharray="3.15 3.15"/>
<path d="M147.04 131.666C146.74 134.711 148.014 137.732 150.46 139.58C150.635 139.705 150.46 140.029 150.285 139.879C147.764 137.957 146.391 134.836 146.69 131.666C146.715 131.441 147.065 131.441 147.04 131.666Z" fill="#17005E"/>
<path d="M133.733 130.317C131.961 133.263 130.587 136.459 129.664 139.755C128.765 142.925 128.44 146.246 127.142 149.316C127.042 149.516 126.743 149.341 126.843 149.142C128.216 145.921 128.515 142.401 129.514 139.08C130.438 135.935 131.786 132.939 133.458 130.143C133.558 129.943 133.858 130.118 133.733 130.317Z" fill="#17005E"/>
<path d="M130.662 129.868C129.264 132.14 126.393 136.883 129.589 138.906C129.788 139.03 129.614 139.33 129.414 139.205C125.994 137.033 128.84 132.115 130.363 129.693C130.487 129.493 130.787 129.668 130.662 129.868Z" fill="#17005E"/>
<path d="M82.5529 140.503H192.328C193.576 140.503 194.575 139.505 194.575 138.257V34.2484C194.575 33.0001 193.576 32.0015 192.328 32.0015H82.5529C81.3046 32.0015 80.3059 33.0001 80.3059 34.2484V138.257C80.3059 139.505 81.3295 140.503 82.5529 140.503Z" stroke="#17005E" stroke-width="1.34816" stroke-miterlimit="10" stroke-linecap="round" stroke-linejoin="round"/>
<path d="M194.575 43.2363H80.3059" stroke="#17005E" stroke-width="0.674081" stroke-miterlimit="10" stroke-linecap="round" stroke-linejoin="round"/>
<path d="M90.7417 40.1156H95.1107C95.3854 40.1156 95.5851 39.8909 95.5851 39.6412V35.2722C95.5851 34.9976 95.3604 34.7979 95.1107 34.7979H90.7417C90.4671 34.7979 90.2673 35.0225 90.2673 35.2722V39.6412C90.2424 39.8909 90.4671 40.1156 90.7417 40.1156Z" fill="#F5A3D2" stroke="#17005E" stroke-width="0.674081" stroke-miterlimit="10" stroke-linecap="round" stroke-linejoin="round"/>
<path d="M92.4394 36.9697H94.4117V38.942H92.4394V36.9697Z" fill="#F5A3D2" stroke="#17005E" stroke-width="0.674081" stroke-miterlimit="10" stroke-linecap="round" stroke-linejoin="round"/>
<path d="M91.4159 35.9712V37.9185H92.4395V36.9698H93.3882V35.9712H91.4159Z" fill="#F5A3D2" stroke="#17005E" stroke-width="0.674081" stroke-miterlimit="10" stroke-linecap="round" stroke-linejoin="round"/>
<path d="M97.7821 40.1156H102.151C102.426 40.1156 102.625 39.8909 102.625 39.6412V35.2722C102.625 34.9976 102.401 34.7979 102.151 34.7979H97.7821C97.5075 34.7979 97.3077 35.0225 97.3077 35.2722V39.6412C97.2828 39.8909 97.5075 40.1156 97.7821 40.1156Z" fill="#F5A3D2" stroke="#17005E" stroke-width="0.674081" stroke-miterlimit="10" stroke-linecap="round" stroke-linejoin="round"/>
<path d="M101.652 38.6675H98.2565" stroke="#17005E" stroke-width="0.674081" stroke-miterlimit="10" stroke-linecap="round" stroke-linejoin="round"/>
<path d="M83.7013 40.1156H88.0703C88.3449 40.1156 88.5447 39.8909 88.5447 39.6412V35.2722C88.5447 34.9976 88.32 34.7979 88.0703 34.7979H83.7013C83.4267 34.7979 83.2269 35.0225 83.2269 35.2722V39.6412C83.202 39.8909 83.4267 40.1156 83.7013 40.1156Z" fill="#F5A3D2" stroke="#17005E" stroke-width="0.674081" stroke-miterlimit="10" stroke-linecap="round" stroke-linejoin="round"/>
<path d="M87.6459 35.6719L84.1007 39.242" stroke="#17005E" stroke-width="0.674081" stroke-miterlimit="10" stroke-linecap="round" stroke-linejoin="round"/>
<path d="M84.1007 35.6719L87.6459 39.242" stroke="#17005E" stroke-width="0.674081" stroke-miterlimit="10" stroke-linecap="round" stroke-linejoin="round"/>
<path d="M188.458 150.615H154.13C153.456 150.615 152.907 150.065 152.907 149.391V145.821C152.907 145.147 153.456 144.598 154.13 144.598H188.458C189.133 144.598 189.682 145.147 189.682 145.821V149.391C189.682 150.065 189.133 150.615 188.458 150.615Z" fill="#82EC99" stroke="#17005E" stroke-width="0.674081" stroke-miterlimit="10" stroke-linecap="round" stroke-linejoin="round"/>
<path d="M162.644 149.741H152.907V145.447H162.644C163.193 145.447 163.667 145.896 163.667 146.47V148.717C163.642 149.292 163.193 149.741 162.644 149.741Z" fill="#DEFAE5" stroke="#17005E" stroke-width="0.674081" stroke-miterlimit="10" stroke-linecap="round" stroke-linejoin="round"/>
<path d="M187.654 149.74H185.981V145.446H187.654V149.74Z" fill="#F48914" stroke="#17005E" stroke-width="0.674081" stroke-miterlimit="10" stroke-linecap="round" stroke-linejoin="round"/>
<path d="M167.228 149.74H165.555V145.446H167.228V149.74Z" fill="#17005E" stroke="#17005E" stroke-width="0.674081" stroke-miterlimit="10" stroke-linecap="round" stroke-linejoin="round"/>
<path d="M152.907 146.296H163.642" stroke="#17005E" stroke-width="0.674081" stroke-miterlimit="10" stroke-linecap="round" stroke-linejoin="round"/>
<path d="M152.907 147.145H163.642" stroke="#17005E" stroke-width="0.674081" stroke-miterlimit="10" stroke-linecap="round" stroke-linejoin="round"/>
<path d="M152.907 147.968H163.642" stroke="#17005E" stroke-width="0.674081" stroke-miterlimit="10" stroke-linecap="round" stroke-linejoin="round"/>
<path d="M152.907 148.792H163.642" stroke="#17005E" stroke-width="0.674081" stroke-miterlimit="10" stroke-linecap="round" stroke-linejoin="round"/>
<path d="M160.197 146.42V148.617L161.32 147.769L162.469 148.617V146.345H160.197" fill="#E556A8"/>
<path d="M160.197 146.42V148.617L161.32 147.769L162.469 148.617V146.345H160.197" stroke="#17005E" stroke-width="0.674081" stroke-miterlimit="10" stroke-linecap="round" stroke-linejoin="round"/>
<path d="M187.035 144.573H152.707C152.033 144.573 151.484 144.024 151.484 143.349V137.358C151.484 136.684 152.033 136.134 152.707 136.134H187.035C187.709 136.134 188.259 136.684 188.259 137.358V143.349C188.259 144.024 187.709 144.573 187.035 144.573Z" fill="#17005E" stroke="#17005E" stroke-width="0.674081" stroke-miterlimit="10" stroke-linecap="round" stroke-linejoin="round"/>
<path d="M156.652 143.349H151.459V137.358H156.652C157.201 137.358 157.675 137.807 157.675 138.381V142.351C157.675 142.9 157.226 143.349 156.652 143.349Z" fill="#DEFAE5" stroke="#17005E" stroke-width="0.674081" stroke-miterlimit="10" stroke-linecap="round" stroke-linejoin="round"/>
<path d="M186.235 143.343H184.563V137.351H186.235V143.343Z" fill="#FDE7D0" stroke="#17005E" stroke-width="0.674081" stroke-miterlimit="10" stroke-linecap="round" stroke-linejoin="round"/>
<path d="M182.749 141.67H159.73V139.049H182.749V141.67Z" fill="#EF76BB" stroke="#17005E" stroke-width="0.674081" stroke-miterlimit="10" stroke-linecap="round" stroke-linejoin="round"/>
<path d="M151.459 138.556H157.675" stroke="#17005E" stroke-width="0.674081" stroke-miterlimit="10" stroke-linecap="round" stroke-linejoin="round"/>
<path d="M151.459 139.704H157.675" stroke="#17005E" stroke-width="0.674081" stroke-miterlimit="10" stroke-linecap="round" stroke-linejoin="round"/>
<path d="M151.459 140.878H157.675" stroke="#17005E" stroke-width="0.674081" stroke-miterlimit="10" stroke-linecap="round" stroke-linejoin="round"/>
<path d="M151.459 142.026H157.675" stroke="#17005E" stroke-width="0.674081" stroke-miterlimit="10" stroke-linecap="round" stroke-linejoin="round"/>
<path d="M153.906 138.456V140.903L155.054 139.979L156.202 140.903V138.381H153.906" fill="#F48914"/>
<path d="M153.906 138.456V140.903L155.054 139.979L156.202 140.903V138.381H153.906" stroke="#17005E" stroke-width="0.674081" stroke-miterlimit="10" stroke-linecap="round" stroke-linejoin="round"/>
<path d="M189.257 136.134H154.929C154.255 136.134 153.706 135.585 153.706 134.911V131.466C153.706 130.792 154.255 130.242 154.929 130.242H189.257C189.931 130.242 190.481 130.792 190.481 131.466V134.886C190.481 135.585 189.931 136.134 189.257 136.134Z" fill="#F48914" stroke="#17005E" stroke-width="0.674081" stroke-miterlimit="10" stroke-linecap="round" stroke-linejoin="round"/>
<path d="M163.443 135.286H153.706V131.091H163.443C163.992 131.091 164.466 131.541 164.466 132.115V134.262C164.466 134.811 163.992 135.286 163.443 135.286Z" fill="#DEFAE5" stroke="#17005E" stroke-width="0.674081" stroke-miterlimit="10" stroke-linecap="round" stroke-linejoin="round"/>
<path d="M166.364 132.115H184.988V134.262H166.364V132.115Z" fill="#8636CC" stroke="#17005E" stroke-width="0.674081" stroke-miterlimit="10" stroke-linecap="round" stroke-linejoin="round"/>
<path d="M186.911 132.489H188.334V133.887H186.911V132.489Z" fill="#E556A8" stroke="#17005E" stroke-width="0.674081" stroke-miterlimit="10" stroke-linecap="round" stroke-linejoin="round"/>
<path d="M153.706 131.915H164.466" stroke="#17005E" stroke-width="0.674081" stroke-miterlimit="10" stroke-linecap="round" stroke-linejoin="round"/>
<path d="M153.706 132.739H164.466" stroke="#17005E" stroke-width="0.674081" stroke-miterlimit="10" stroke-linecap="round" stroke-linejoin="round"/>
<path d="M153.706 133.538H164.466" stroke="#17005E" stroke-width="0.674081" stroke-miterlimit="10" stroke-linecap="round" stroke-linejoin="round"/>
<path d="M153.706 134.362H164.466" stroke="#17005E" stroke-width="0.674081" stroke-miterlimit="10" stroke-linecap="round" stroke-linejoin="round"/>
<path d="M158.3 134.412V136.109L157.151 135.46L156.028 136.109V134.337H158.3" fill="#E556A8"/>
<path d="M158.3 134.412V136.109L157.151 135.46L156.028 136.109V134.337H158.3" stroke="#17005E" stroke-width="0.674081" stroke-miterlimit="10" stroke-linecap="round" stroke-linejoin="round"/>
<path d="M166.738 143.824L163.517 148.043C163.043 148.667 162.993 149.541 163.418 150.215C164.117 151.338 165.69 151.488 166.588 150.565L169.21 147.843L166.738 143.824Z" fill="#E556A8" stroke="#17005E" stroke-width="0.674081" stroke-miterlimit="10" stroke-linecap="round" stroke-linejoin="round"/>
<path d="M165.065 145.996L166.738 143.824L169.235 147.843L167.088 150.065L165.065 145.996Z" fill="#17005E" stroke="#17005E" stroke-width="0.674081" stroke-miterlimit="10" stroke-linecap="round" stroke-linejoin="round"/>
<path d="M168.436 136.883L166.189 102.53L172.28 87.0513L178.347 91.645C182.092 94.4911 183.89 99.2097 182.941 103.828L176.125 137.383L176.749 137.682C177.948 138.281 178.747 139.505 178.822 140.828L179.196 148.268L171.981 150.44L175.251 154.509L174.877 154.759C173.629 155.558 172.006 155.508 170.832 154.584L168.835 153.036C167.911 152.287 167.312 151.239 167.113 150.065L166.389 145.497C166.264 144.773 166.314 144.049 166.538 143.349L168.436 136.883Z" fill="#E556A8" stroke="#17005E" stroke-width="0.674081" stroke-miterlimit="10" stroke-linecap="round" stroke-linejoin="round"/>
<path d="M166.189 102.555L178.347 91.6451L176.1 90.0723L166.189 102.555Z" fill="#17005E" stroke="#17005E" stroke-width="0.674081" stroke-miterlimit="10" stroke-linecap="round" stroke-linejoin="round"/>
<path d="M170.932 149.991L174.777 154.509C175.227 155.034 175.901 155.258 176.575 155.109C177.748 154.834 178.322 153.511 177.748 152.462L175.601 148.642" fill="#E556A8"/>
<path d="M170.932 149.991L174.777 154.509C175.227 155.034 175.901 155.258 176.575 155.109C177.748 154.834 178.322 153.511 177.748 152.462L175.601 148.642" stroke="#17005E" stroke-width="0.674081" stroke-miterlimit="10" stroke-linecap="round" stroke-linejoin="round"/>
<path d="M179.146 147.669L180.444 150.839L181.069 150.39C181.643 149.966 182.442 150.04 182.941 150.54C183.54 151.139 183.49 152.138 182.841 152.687L182.042 153.361C181.368 153.91 180.519 154.21 179.645 154.135C178.522 154.06 177.498 153.411 176.974 152.412L174.677 148.143" fill="#E556A8"/>
<path d="M179.146 147.669L180.444 150.839L181.069 150.39C181.643 149.966 182.442 150.04 182.941 150.54C183.54 151.139 183.49 152.138 182.841 152.687L182.042 153.361C181.368 153.91 180.519 154.21 179.645 154.135C178.522 154.06 177.498 153.411 176.974 152.412L174.677 148.143" stroke="#17005E" stroke-width="0.674081" stroke-miterlimit="10" stroke-linecap="round" stroke-linejoin="round"/>
<path d="M178.322 126.622L176.125 137.383L174.353 136.259L178.322 126.622Z" fill="#17005E" stroke="#17005E" stroke-width="0.674081" stroke-miterlimit="10" stroke-linecap="round" stroke-linejoin="round"/>
<path d="M65.1766 75.8164V78.9621H57.7617C56.8879 78.9621 56.1889 78.2631 56.1889 77.3893C56.1889 76.5155 56.8879 75.8164 57.7617 75.8164H65.1766Z" fill="#E556A8" stroke="#17005E" stroke-width="0.674081" stroke-miterlimit="10" stroke-linecap="round" stroke-linejoin="round"/>
<path d="M67.5483 75.8164V78.9621H60.1085C59.2347 78.9621 58.5356 78.2631 58.5356 77.3893C58.5356 76.5155 59.2347 75.8164 60.1085 75.8164H67.5483Z" fill="#E556A8" stroke="#17005E" stroke-width="0.674081" stroke-miterlimit="10" stroke-linecap="round" stroke-linejoin="round"/>
<path d="M82.4032 77.1147L79.6819 71.8719C79.3324 71.1978 78.6583 70.7983 77.8844 70.7983H72.9661C72.1921 70.7983 71.568 71.4225 71.568 72.1964C71.568 72.9704 72.1921 73.5945 72.9661 73.5945H75.4127C75.4127 75.5169 76.9606 77.0648 78.858 77.0898L82.4032 77.1147Z" fill="#E556A8" stroke="#17005E" stroke-width="0.674081" stroke-miterlimit="10" stroke-linecap="round" stroke-linejoin="round"/>
<path d="M62.9297 75.8164H80.4058C81.7041 75.8164 82.9773 76.1909 84.0509 76.8899L107.669 92.1941L121.15 101.107L111.339 108.672C108.592 110.794 104.648 110.469 102.276 107.948L77.8094 81.8082C75.163 80.9594 71.0686 79.6362 69.0463 78.9621H62.9546C62.0808 78.9621 61.3818 78.2631 61.3818 77.3893C61.3818 76.5155 62.0808 75.8164 62.9297 75.8164Z" fill="#E556A8" stroke="#17005E" stroke-width="0.674081" stroke-miterlimit="10" stroke-linecap="round" stroke-linejoin="round"/>
<path d="M107.669 92.1941L120.127 101.656L117.355 103.878L107.669 92.1941Z" fill="#17005E" stroke="#17005E" stroke-width="0.674081" stroke-miterlimit="10" stroke-linecap="round" stroke-linejoin="round"/>
<path d="M77.8094 81.7832L84.9746 84.8041L86.5974 91.1704L77.8094 81.7832Z" fill="#17005E" stroke="#17005E" stroke-width="0.674081" stroke-miterlimit="10" stroke-linecap="round" stroke-linejoin="round"/>
<path d="M107.669 92.1944L121.15 77.5393C123.797 74.6683 127.542 73.0205 131.436 73.0205H151.758C154.729 73.0205 157.601 73.9692 159.997 75.7168L175.701 87.1762C176.625 87.8503 176.799 89.1735 176.1 90.0722L166.189 102.53L156.352 95.415V129.069H117.081L120.951 102.68L107.669 92.1944Z" fill="#8636CC" stroke="#17005E" stroke-width="0.674081" stroke-miterlimit="10" stroke-linecap="round" stroke-linejoin="round"/>
<path d="M132.959 73.0454H144.993C144.943 76.3159 142.272 78.9623 138.976 78.9623C135.681 78.9623 133.009 76.3159 132.959 73.0454Z" fill="#17005E" stroke="#17005E" stroke-width="0.674081" stroke-miterlimit="10" stroke-linecap="round" stroke-linejoin="round"/>
<path d="M120.951 102.68L123.497 86.2524L118.679 97.1626L120.951 102.68Z" fill="#17005E" stroke="#17005E" stroke-width="0.674081" stroke-miterlimit="10" stroke-linecap="round" stroke-linejoin="round"/>
<path d="M156.327 95.4398L153.506 84.6545L166.189 102.555L156.327 95.4398Z" fill="#17005E" stroke="#17005E" stroke-width="0.674081" stroke-miterlimit="10" stroke-linecap="round" stroke-linejoin="round"/>
<path d="M146.665 83.2318C145.941 83.2318 145.217 83.2318 144.493 83.2318C144.269 83.2318 144.269 82.8823 144.493 82.8823C145.217 82.8823 145.941 82.8823 146.665 82.8823C146.915 82.8823 146.915 83.2318 146.665 83.2318Z" fill="#17005E"/>
<path d="M140.349 85.928C140.349 86.6521 140.349 87.3761 140.349 88.1001C140.349 88.3248 140 88.3248 140 88.1001C140 87.3761 140 86.6521 140 85.928C140 85.7033 140.349 85.7033 140.349 85.928Z" fill="#17005E"/>
<path d="M145.167 91.4705C145.167 91.9449 145.167 92.4442 145.167 92.9185C145.167 93.1432 144.818 93.1432 144.818 92.9185C144.818 92.4442 144.818 91.9449 144.818 91.4705C144.818 91.2458 145.167 91.2458 145.167 91.4705Z" fill="#17005E"/>
<path d="M148.738 94.7161C149.312 95.2903 149.861 95.8396 150.435 96.4138C150.585 96.5636 150.335 96.8132 150.186 96.6635C149.611 96.0892 149.062 95.54 148.488 94.9658C148.313 94.816 148.563 94.5663 148.738 94.7161Z" fill="#17005E"/>
<path d="M145.592 100.733C144.868 101.457 144.144 102.181 143.42 102.905C143.27 103.055 143.02 102.805 143.17 102.655C143.894 101.931 144.618 101.207 145.342 100.483C145.517 100.333 145.767 100.583 145.592 100.733Z" fill="#17005E"/>
<path d="M139.151 98.9354C139.151 99.5845 139.151 100.209 139.151 100.858C139.151 101.082 138.801 101.082 138.801 100.858C138.801 100.209 138.801 99.5845 138.801 98.9354C138.801 98.7107 139.151 98.7107 139.151 98.9354Z" fill="#17005E"/>
<path d="M133.309 96.4137C132.66 97.0629 132.035 97.687 131.386 98.3361C131.236 98.4859 130.987 98.2363 131.137 98.0865C131.786 97.4373 132.41 96.8132 133.059 96.1641C133.234 96.0143 133.483 96.239 133.309 96.4137Z" fill="#17005E"/>
<path d="M129.464 92.7937C129.214 93.0433 128.99 93.268 128.74 93.5177C128.59 93.6675 128.34 93.4178 128.49 93.268C128.74 93.0183 128.965 92.7937 129.214 92.544C129.389 92.3942 129.639 92.6439 129.464 92.7937Z" fill="#17005E"/>
<path d="M128.74 87.0266C128.266 86.5522 127.766 86.0529 127.292 85.5786C127.142 85.4288 127.392 85.1791 127.542 85.3289C128.016 85.8033 128.515 86.3026 128.99 86.7769C129.139 86.9267 128.89 87.1764 128.74 87.0266Z" fill="#17005E"/>
<path d="M128.016 80.7601C127.766 80.5104 127.542 80.2857 127.292 80.0361C127.142 79.8863 127.392 79.6366 127.542 79.7864C127.791 80.0361 128.016 80.2608 128.266 80.5104C128.415 80.6852 128.166 80.9099 128.016 80.7601Z" fill="#17005E"/>
<path d="M124.895 77.1401C124.496 77.5395 124.096 77.939 123.697 78.3384C123.547 78.4882 123.297 78.2386 123.447 78.0888C123.847 77.6893 124.246 77.2899 124.645 76.8904C124.795 76.7406 125.045 76.9903 124.895 77.1401Z" fill="#17005E"/>
<path d="M121.824 82.0833C121.824 82.5577 121.824 83.057 121.824 83.5313C121.824 83.756 121.475 83.756 121.475 83.5313C121.475 83.057 121.475 82.5577 121.475 82.0833C121.475 81.8586 121.824 81.8586 121.824 82.0833Z" fill="#17005E"/>
<path d="M130.537 82.3828C131.112 82.3828 131.661 82.3828 132.235 82.3828C132.46 82.3828 132.46 82.7323 132.235 82.7323C131.661 82.7323 131.112 82.7323 130.537 82.7323C130.313 82.7323 130.313 82.3828 130.537 82.3828Z" fill="#17005E"/>
<path d="M134.582 87.376C134.582 87.8504 134.582 88.3497 134.582 88.8241C134.582 89.0488 134.232 89.0488 134.232 88.8241C134.232 88.3497 134.232 87.8504 134.232 87.376C134.232 87.1513 134.582 87.1513 134.582 87.376Z" fill="#17005E"/>
<path d="M139.325 81.9584C139.725 81.559 140.124 81.1595 140.524 80.7601C140.674 80.6103 140.923 80.8599 140.774 81.0097C140.374 81.4092 139.975 81.8086 139.575 82.2081C139.425 82.3579 139.176 82.1082 139.325 81.9584Z" fill="#17005E"/>
<path d="M146.79 77.6144C147.04 77.3648 147.265 77.1401 147.514 76.8904C147.664 76.7406 147.914 76.9903 147.764 77.1401C147.514 77.3897 147.29 77.6144 147.04 77.8641C146.89 78.0389 146.64 77.7892 146.79 77.6144Z" fill="#17005E"/>
<path d="M152.383 78.713C152.383 79.0375 152.383 79.3621 152.383 79.6866C152.383 79.9113 152.033 79.9113 152.033 79.6866C152.033 79.3621 152.033 79.0375 152.033 78.713C152.033 78.4883 152.383 78.4883 152.383 78.713Z" fill="#17005E"/>
<path d="M151.359 75.4674C150.96 75.0679 150.56 74.6684 150.161 74.269C150.011 74.1192 150.261 73.8695 150.41 74.0193C150.81 74.4188 151.209 74.8182 151.609 75.2177C151.783 75.3675 151.534 75.6172 151.359 75.4674Z" fill="#17005E"/>
<path d="M157.451 77.265C157.451 77.7393 157.451 78.2386 157.451 78.713C157.451 78.9377 157.101 78.9377 157.101 78.713C157.101 78.2386 157.101 77.7393 157.101 77.265C157.101 77.0403 157.451 77.0403 157.451 77.265Z" fill="#17005E"/>
<path d="M161.545 81.1097C161.545 82.0834 161.545 83.0321 161.545 84.0057C161.545 84.2304 161.196 84.2304 161.196 84.0057C161.196 83.0321 161.196 82.0834 161.196 81.1097C161.196 80.885 161.545 80.885 161.545 81.1097Z" fill="#17005E"/>
<path d="M167.262 84.8546C167.662 85.254 168.061 85.6535 168.461 86.0529C168.611 86.2027 168.361 86.4524 168.211 86.3026C167.812 85.9031 167.412 85.5037 167.013 85.1042C166.863 84.9295 167.113 84.6798 167.262 84.8546Z" fill="#17005E"/>
<path d="M165.59 89.673C165.34 89.9227 165.115 90.1474 164.866 90.397C164.716 90.5468 164.466 90.2972 164.616 90.1474C164.866 89.8977 165.09 89.673 165.34 89.4234C165.49 89.2736 165.739 89.4983 165.59 89.673Z" fill="#17005E"/>
<path d="M166.588 94.8409C166.588 95.5649 166.588 96.2889 166.588 97.0129C166.588 97.2376 166.239 97.2376 166.239 97.0129C166.239 96.2889 166.239 95.5649 166.239 94.8409C166.239 94.6162 166.588 94.6162 166.588 94.8409Z" fill="#17005E"/>
<path d="M170.158 89.8976C170.558 89.4982 170.957 89.0987 171.357 88.6993C171.507 88.5495 171.756 88.7991 171.607 88.9489C171.207 89.3484 170.808 89.7478 170.408 90.1473C170.233 90.322 169.984 90.0724 170.158 89.8976Z" fill="#17005E"/>
<path d="M173.629 88.3997C174.103 88.3997 174.602 88.3997 175.077 88.3997C175.301 88.3997 175.301 88.7492 175.077 88.7492C174.602 88.7492 174.103 88.7492 173.629 88.7492C173.404 88.7492 173.404 88.3997 173.629 88.3997Z" fill="#17005E"/>
<path d="M169.959 92.669C169.959 93.1434 169.959 93.6427 169.959 94.117C169.959 94.3417 169.609 94.3417 169.609 94.117C169.609 93.6427 169.609 93.1434 169.609 92.669C169.609 92.4443 169.959 92.4443 169.959 92.669Z" fill="#17005E"/>
<path d="M160.397 89.7228C160.072 89.7228 159.748 89.7228 159.423 89.7228C159.198 89.7228 159.198 89.3733 159.423 89.3733C159.748 89.3733 160.072 89.3733 160.397 89.3733C160.621 89.3733 160.621 89.7228 160.397 89.7228Z" fill="#17005E"/>
<path d="M164.067 82.0834C164.067 81.7588 164.067 81.4342 164.067 81.1097C164.067 80.885 164.416 80.885 164.416 81.1097C164.416 81.4342 164.416 81.7588 164.416 82.0834C164.416 82.308 164.067 82.308 164.067 82.0834Z" fill="#17005E"/>
<path d="M156.552 83.2318C156.152 83.2318 155.753 83.2318 155.354 83.2318C155.129 83.2318 155.129 82.8823 155.354 82.8823C155.753 82.8823 156.152 82.8823 156.552 82.8823C156.777 82.8823 156.777 83.2318 156.552 83.2318Z" fill="#17005E"/>
<path d="M150.161 88.6993C150.41 88.9489 150.635 89.1736 150.885 89.4233C151.034 89.5731 150.785 89.8227 150.635 89.6729C150.385 89.4233 150.161 89.1986 149.911 88.9489C149.761 88.7991 150.011 88.5495 150.161 88.6993Z" fill="#17005E"/>
<path d="M154.804 99.909C154.804 100.783 154.804 101.682 154.804 102.555C154.804 102.78 154.455 102.78 154.455 102.555C154.455 101.682 154.455 100.783 154.455 99.909C154.455 99.6843 154.804 99.6843 154.804 99.909Z" fill="#17005E"/>
<path d="M151.134 105.077C150.81 105.402 150.485 105.726 150.161 106.051C150.011 106.201 149.761 105.951 149.911 105.801C150.236 105.477 150.56 105.152 150.885 104.827C151.059 104.678 151.284 104.927 151.134 105.077Z" fill="#17005E"/>
<path d="M151.184 110.245C151.184 110.894 151.184 111.518 151.184 112.167C151.184 112.392 150.835 112.392 150.835 112.167C150.835 111.518 150.835 110.894 150.835 110.245C150.835 110.02 151.184 110.02 151.184 110.245Z" fill="#17005E"/>
<path d="M149.686 114.938C149.437 115.188 149.212 115.413 148.962 115.662C148.813 115.812 148.563 115.563 148.713 115.413C148.962 115.163 149.187 114.938 149.437 114.689C149.611 114.539 149.861 114.789 149.686 114.938Z" fill="#17005E"/>
<path d="M144.269 113.316C143.869 113.316 143.47 113.316 143.07 113.316C142.846 113.316 142.846 112.966 143.07 112.966C143.47 112.966 143.869 112.966 144.269 112.966C144.493 112.966 144.493 113.316 144.269 113.316Z" fill="#17005E"/>
<path d="M144.394 107.474C143.919 107.948 143.42 108.447 142.946 108.922C142.796 109.072 142.546 108.822 142.696 108.672C143.17 108.198 143.67 107.699 144.144 107.224C144.319 107.074 144.543 107.324 144.394 107.474Z" fill="#17005E"/>
<path d="M139.226 107.049C138.826 107.049 138.427 107.049 138.027 107.049C137.803 107.049 137.803 106.7 138.027 106.7C138.427 106.7 138.826 106.7 139.226 106.7C139.45 106.7 139.45 107.049 139.226 107.049Z" fill="#17005E"/>
<path d="M134.807 104.702C134.807 105.501 134.807 106.3 134.807 107.099C134.807 107.324 134.457 107.324 134.457 107.099C134.457 106.3 134.457 105.501 134.457 104.702C134.457 104.478 134.807 104.478 134.807 104.702Z" fill="#17005E"/>
<path d="M130.712 108.073C130.712 108.647 130.712 109.196 130.712 109.77C130.712 109.995 130.363 109.995 130.363 109.77C130.363 109.196 130.363 108.647 130.363 108.073C130.363 107.848 130.712 107.848 130.712 108.073Z" fill="#17005E"/>
<path d="M136.08 113.316C135.506 113.316 134.956 113.316 134.382 113.316C134.157 113.316 134.157 112.966 134.382 112.966C134.956 112.966 135.506 112.966 136.08 112.966C136.304 112.966 136.304 113.316 136.08 113.316Z" fill="#17005E"/>
<path d="M128.266 104.103C127.941 104.428 127.616 104.753 127.292 105.077C127.142 105.227 126.892 104.977 127.042 104.827C127.367 104.503 127.691 104.178 128.016 103.854C128.166 103.704 128.415 103.954 128.266 104.103Z" fill="#17005E"/>
<path d="M124.171 101.232C124.021 101.382 123.847 101.557 123.697 101.706C123.547 101.856 123.297 101.607 123.447 101.457C123.597 101.307 123.772 101.132 123.921 100.982C124.096 100.808 124.321 101.057 124.171 101.232Z" fill="#17005E"/>
<path d="M154.305 112.167C154.305 112.492 154.305 112.816 154.305 113.141C154.305 113.366 153.956 113.366 153.956 113.141C153.956 112.816 153.956 112.492 153.956 112.167C153.956 111.943 154.305 111.943 154.305 112.167Z" fill="#17005E"/>
<path d="M154.854 118.858C154.055 118.858 153.256 118.858 152.458 118.858C152.233 118.858 152.233 118.509 152.458 118.509C153.256 118.509 154.055 118.509 154.854 118.509C155.079 118.509 155.079 118.858 154.854 118.858Z" fill="#17005E"/>
<path d="M154.555 122.279C154.555 122.753 154.555 123.252 154.555 123.727C154.555 123.951 154.205 123.951 154.205 123.727C154.205 123.252 154.205 122.753 154.205 122.279C154.205 122.054 154.555 122.054 154.555 122.279Z" fill="#17005E"/>
<path d="M152.582 125.05C152.258 124.725 151.933 124.401 151.609 124.076C151.459 123.926 151.709 123.677 151.858 123.826C152.183 124.151 152.507 124.476 152.832 124.8C152.982 124.975 152.732 125.225 152.582 125.05Z" fill="#17005E"/>
<path d="M146.566 122.179C146.241 122.503 145.916 122.828 145.592 123.152C145.442 123.302 145.192 123.052 145.342 122.903C145.667 122.578 145.991 122.254 146.316 121.929C146.466 121.754 146.715 122.004 146.566 122.179Z" fill="#17005E"/>
<path d="M154.804 127.821C154.804 128.071 154.804 128.295 154.804 128.545C154.804 128.77 154.455 128.77 154.455 128.545C154.455 128.295 154.455 128.071 154.455 127.821C154.455 127.596 154.804 127.596 154.804 127.821Z" fill="#17005E"/>
<path d="M148.837 127.047C148.263 127.047 147.714 127.047 147.14 127.047C146.915 127.047 146.915 126.698 147.14 126.698C147.714 126.698 148.263 126.698 148.837 126.698C149.062 126.698 149.062 127.047 148.837 127.047Z" fill="#17005E"/>
<path d="M140.724 127.821C140.724 127.247 140.724 126.698 140.724 126.123C140.724 125.899 141.073 125.899 141.073 126.123C141.073 126.698 141.073 127.247 141.073 127.821C141.073 128.046 140.724 128.046 140.724 127.821Z" fill="#17005E"/>
<path d="M138.127 122.653C137.403 123.377 136.679 124.101 135.955 124.825C135.805 124.975 135.556 124.725 135.705 124.575C136.429 123.851 137.153 123.127 137.877 122.403C138.052 122.254 138.302 122.503 138.127 122.653Z" fill="#17005E"/>
<path d="M131.636 125.774C131.386 125.524 131.162 125.299 130.912 125.05C130.762 124.9 131.012 124.65 131.162 124.8C131.411 125.05 131.636 125.274 131.886 125.524C132.035 125.699 131.786 125.949 131.636 125.774Z" fill="#17005E"/>
<path d="M126.817 121.205C126.493 121.53 126.168 121.854 125.844 122.179C125.694 122.328 125.444 122.079 125.594 121.929C125.919 121.604 126.243 121.28 126.568 120.955C126.743 120.806 126.967 121.055 126.817 121.205Z" fill="#17005E"/>
<path d="M143.894 117.835C143.32 117.26 142.771 116.711 142.197 116.137C142.047 115.987 142.296 115.737 142.446 115.887C143.02 116.461 143.57 117.011 144.144 117.585C144.319 117.76 144.069 117.984 143.894 117.835Z" fill="#17005E"/>
<path d="M140.823 117.96C140.823 118.534 140.823 119.083 140.823 119.657C140.823 119.882 140.474 119.882 140.474 119.657C140.474 119.083 140.474 118.534 140.474 117.96C140.474 117.735 140.823 117.735 140.823 117.96Z" fill="#17005E"/>
<path d="M137.054 118.609C136.579 118.609 136.08 118.609 135.606 118.609C135.381 118.609 135.381 118.259 135.606 118.259C136.08 118.259 136.579 118.259 137.054 118.259C137.278 118.259 137.278 118.609 137.054 118.609Z" fill="#17005E"/>
<path d="M131.636 116.886C131.386 117.136 131.162 117.36 130.912 117.61C130.762 117.76 130.512 117.51 130.662 117.36C130.912 117.111 131.137 116.886 131.386 116.636C131.536 116.462 131.786 116.711 131.636 116.886Z" fill="#17005E"/>
<path d="M126.343 114.215C126.019 114.539 125.694 114.864 125.37 115.188C125.22 115.338 124.97 115.088 125.12 114.939C125.444 114.614 125.769 114.289 126.094 113.965C126.243 113.815 126.493 114.065 126.343 114.215Z" fill="#17005E"/>
<path d="M123.572 110.669C122.923 110.669 122.299 110.669 121.65 110.669C121.425 110.669 121.425 110.32 121.65 110.32C122.299 110.32 122.923 110.32 123.572 110.32C123.797 110.32 123.797 110.669 123.572 110.669Z" fill="#17005E"/>
<path d="M124.396 97.8619C124.146 97.6122 123.921 97.3875 123.672 97.1379C123.522 96.9881 123.772 96.7384 123.921 96.8882C124.171 97.1379 124.396 97.3626 124.645 97.6122C124.82 97.762 124.571 98.0117 124.396 97.8619Z" fill="#17005E"/>
<path d="M137.902 92.3194C138.552 92.9685 139.176 93.5927 139.825 94.2418C139.975 94.3916 139.725 94.6412 139.575 94.4914C138.926 93.8423 138.302 93.2182 137.653 92.5691C137.478 92.3943 137.728 92.1446 137.902 92.3194Z" fill="#17005E"/>
<path d="M144.394 85.8033C144.968 86.3775 145.517 86.9267 146.091 87.501C146.241 87.6508 145.991 87.9004 145.842 87.7506C145.267 87.1764 144.718 86.6271 144.144 86.0529C143.994 85.9031 144.244 85.6535 144.394 85.8033Z" fill="#17005E"/>
<path d="M150.161 82.6824C150.31 82.8322 150.485 83.0069 150.635 83.1567C150.785 83.3065 150.535 83.5562 150.385 83.4064C150.236 83.2566 150.061 83.0818 149.911 82.9321C149.761 82.7573 150.011 82.5326 150.161 82.6824Z" fill="#17005E"/>
<path d="M131.586 77.7393C131.586 77.0902 131.586 76.4661 131.586 75.817C131.586 75.5923 131.936 75.5923 131.936 75.817C131.936 76.4661 131.936 77.0902 131.936 77.7393C131.936 77.964 131.586 77.964 131.586 77.7393Z" fill="#17005E"/>
<path d="M128.74 74.9931C128.59 74.8433 128.415 74.6685 128.266 74.5187C128.116 74.369 128.365 74.1193 128.515 74.2691C128.665 74.4189 128.84 74.5936 128.99 74.7434C129.139 74.8932 128.89 75.1429 128.74 74.9931Z" fill="#17005E"/>
<path d="M118.629 86.5274C118.878 86.7771 119.103 87.0017 119.353 87.2514C119.503 87.4012 119.253 87.6509 119.103 87.5011C118.853 87.2514 118.629 87.0267 118.379 86.7771C118.229 86.6273 118.479 86.3776 118.629 86.5274Z" fill="#17005E"/>
<path d="M115.508 85.8281C115.358 85.9779 115.183 86.1526 115.034 86.3024C114.884 86.4522 114.634 86.2026 114.784 86.0528C114.934 85.903 115.108 85.7282 115.258 85.5784C115.408 85.4037 115.658 85.6533 115.508 85.8281Z" fill="#17005E"/>
<path d="M118.404 81.7088C118.554 81.8586 118.729 82.0333 118.878 82.1831C119.028 82.3329 118.779 82.5826 118.629 82.4328C118.479 82.283 118.304 82.1082 118.154 81.9584C117.98 81.8087 118.229 81.559 118.404 81.7088Z" fill="#17005E"/>
<path d="M116.107 90.322C116.681 90.322 117.231 90.322 117.805 90.322C118.029 90.322 118.029 90.6715 117.805 90.6715C117.231 90.6715 116.681 90.6715 116.107 90.6715C115.882 90.6965 115.882 90.322 116.107 90.322Z" fill="#17005E"/>
<path d="M116.457 93.5178C116.307 93.6676 116.132 93.8423 115.982 93.9921C115.832 94.1419 115.583 93.8923 115.733 93.7425C115.882 93.5927 116.057 93.4179 116.207 93.2681C116.382 93.1183 116.631 93.368 116.457 93.5178Z" fill="#17005E"/>
<path d="M116.232 96.6385C116.556 96.963 116.881 97.2876 117.206 97.6122C117.355 97.7619 117.106 98.0116 116.956 97.8618C116.631 97.5373 116.307 97.2127 115.982 96.8881C115.832 96.7383 116.057 96.4887 116.232 96.6385Z" fill="#17005E"/>
<path d="M111.838 92.6689C111.838 92.0947 111.838 91.5455 111.838 90.9713C111.838 90.7466 112.188 90.7466 112.188 90.9713C112.188 91.5455 112.188 92.0947 112.188 92.6689C112.188 92.8936 111.838 92.8936 111.838 92.6689Z" fill="#17005E"/>
<path d="M110.44 91.8449C110.29 91.9947 110.115 92.1695 109.966 92.3193C109.816 92.4691 109.566 92.2194 109.716 92.0696C109.866 91.9198 110.04 91.7451 110.19 91.5953C110.365 91.4205 110.615 91.6702 110.44 91.8449Z" fill="#17005E"/>
<path d="M121.1 120.356C121.1 120.681 121.1 121.005 121.1 121.33C121.1 121.555 120.751 121.555 120.751 121.33C120.751 121.005 120.751 120.681 120.751 120.356C120.751 120.132 121.1 120.132 121.1 120.356Z" fill="#17005E"/>
<path d="M123.447 125.05C123.197 125.299 122.973 125.524 122.723 125.774C122.573 125.924 122.324 125.674 122.473 125.524C122.723 125.274 122.948 125.05 123.197 124.8C123.372 124.65 123.597 124.9 123.447 125.05Z" fill="#17005E"/>
<path d="M119.827 127.222C119.577 126.972 119.353 126.747 119.103 126.498C118.953 126.348 119.203 126.098 119.353 126.248C119.602 126.498 119.827 126.722 120.077 126.972C120.227 127.147 120.002 127.397 119.827 127.222Z" fill="#17005E"/>
<path d="M121.025 116.162C120.776 115.912 120.551 115.688 120.301 115.438C120.152 115.288 120.401 115.038 120.551 115.188C120.801 115.438 121.025 115.663 121.275 115.912C121.45 116.062 121.2 116.312 121.025 116.162Z" fill="#17005E"/>
<path d="M126.094 126.023C125.944 126.173 125.769 126.348 125.619 126.498C125.469 126.648 125.22 126.398 125.37 126.248C125.519 126.098 125.694 125.924 125.844 125.774C126.019 125.624 126.268 125.874 126.094 126.023Z" fill="#17005E"/>
<path d="M131.137 121.929C130.737 121.53 130.338 121.13 129.938 120.731C129.788 120.581 130.038 120.331 130.188 120.481C130.587 120.88 130.987 121.28 131.386 121.679C131.561 121.854 131.311 122.079 131.137 121.929Z" fill="#17005E"/>
<path d="M162.269 93.3929C162.269 93.7923 162.269 94.1918 162.269 94.5913C162.269 94.8159 161.92 94.8159 161.92 94.5913C161.92 94.1918 161.92 93.7923 161.92 93.3929C161.92 93.1682 162.269 93.1682 162.269 93.3929Z" fill="#17005E"/>
<path d="M162.194 87.0267C162.519 86.7021 162.843 86.3776 163.168 86.053C163.318 85.9032 163.567 86.1529 163.418 86.3027C163.093 86.6272 162.768 86.9518 162.444 87.2764C162.294 87.4262 162.044 87.1765 162.194 87.0267Z" fill="#17005E"/>
<path d="M143.545 54.8701H144.419C146.291 54.8701 147.689 56.6427 147.24 58.4652L146.091 63.1338C145.817 64.2074 144.843 64.9813 143.744 64.9813H142.995L143.545 54.8701Z" fill="#17005E" stroke="#17005E" stroke-width="0.674081" stroke-miterlimit="10" stroke-linecap="round" stroke-linejoin="round"/>
<path d="M136.33 52.0742C140.1 52.0742 143.27 54.4959 144.444 57.8414H145.243C146.291 57.8414 147.165 58.7152 147.165 59.7637C147.165 60.8123 146.291 61.6861 145.243 61.6861H144.868C144.344 65.9303 140.724 69.2258 136.355 69.2258C131.611 69.2258 127.766 65.3811 127.766 60.6375C127.741 55.919 131.586 52.0742 136.33 52.0742Z" fill="#E556A8" stroke="#17005E" stroke-width="0.674081" stroke-miterlimit="10" stroke-linecap="round" stroke-linejoin="round"/>
<path d="M136.33 52.0742C140.1 52.0742 143.27 54.4959 144.444 57.8414H145.243C146.291 57.8414 147.165 58.7152 147.165 59.7637C147.165 60.8123 146.291 61.6861 145.243 61.6861H144.868C144.344 65.9303 140.724 69.2258 136.355 69.2258C131.611 69.2258 127.766 65.3811 127.766 60.6375C127.741 55.919 131.586 52.0742 136.33 52.0742Z" fill="#E556A8" stroke="#17005E" stroke-width="0.674081" stroke-miterlimit="10" stroke-linecap="round" stroke-linejoin="round"/>
<path d="M145.842 59.4142C145.367 59.5141 144.943 59.7138 144.543 60.0134C144.543 59.9136 144.543 59.8137 144.543 59.7138C144.893 59.9385 145.242 60.1882 145.592 60.4129C145.767 60.5377 145.592 60.8373 145.417 60.7125C145.068 60.4878 144.718 60.2381 144.369 60.0134C144.244 59.9385 144.269 59.7887 144.369 59.7138C144.793 59.4142 145.242 59.1895 145.767 59.0897C145.966 59.0397 146.066 59.3643 145.842 59.4142Z" fill="#17005E"/>
<path d="M144.019 56.0936H131.761C128.74 56.0936 126.293 53.6469 126.293 50.6261C126.293 49.8771 126.892 49.2529 127.666 49.2529H139.575C142.696 49.2529 144.993 52.1989 144.244 55.2198L144.019 56.0936Z" fill="#17005E" stroke="#17005E" stroke-width="0.674081" stroke-miterlimit="10" stroke-linecap="round" stroke-linejoin="round"/>
<path d="M139.301 55.4444L139.675 56.418C139.975 57.2419 140.774 57.7912 141.647 57.7912L144.469 57.8411V55.2446L139.301 55.4444Z" fill="#17005E" stroke="#17005E" stroke-width="0.674081" stroke-miterlimit="10" stroke-linecap="round" stroke-linejoin="round"/>
<path d="M134.133 59.9632C134.133 60.2378 134.357 60.4625 134.632 60.4625C134.907 60.4625 135.131 60.2378 135.131 59.9632C135.131 59.6886 134.907 59.4639 134.632 59.4639C134.357 59.4639 134.133 59.6886 134.133 59.9632Z" fill="#17005E" stroke="#17005E" stroke-width="0.674081" stroke-miterlimit="10" stroke-linecap="round" stroke-linejoin="round"/>
<path d="M128.74 59.9632C128.74 60.2378 128.965 60.4625 129.239 60.4625C129.514 60.4625 129.739 60.2378 129.739 59.9632C129.739 59.6886 129.514 59.4639 129.239 59.4639C128.965 59.4639 128.74 59.6886 128.74 59.9632Z" fill="#17005E" stroke="#17005E" stroke-width="0.674081" stroke-miterlimit="10" stroke-linecap="round" stroke-linejoin="round"/>
<path d="M131.561 58.3403V60.2377C131.561 60.7371 131.162 61.1116 130.687 61.1116C130.188 61.1116 129.813 61.511 129.813 61.9854C129.813 62.9091 130.562 63.683 131.511 63.683H132.235" stroke="#17005E" stroke-width="0.674081" stroke-miterlimit="10" stroke-linecap="round" stroke-linejoin="round"/>
<path d="M142.821 58.915C142.371 58.915 141.947 58.915 141.498 58.915C141.273 58.915 141.273 58.5654 141.498 58.5654C141.947 58.5654 142.371 58.5654 142.821 58.5654C143.045 58.5654 143.045 58.915 142.821 58.915Z" fill="#17005E"/>
<path d="M142.796 59.664C142.496 59.664 142.172 59.664 141.872 59.664C141.647 59.664 141.647 59.3145 141.872 59.3145C142.172 59.3145 142.496 59.3145 142.796 59.3145C143.02 59.3145 143.02 59.664 142.796 59.664Z" fill="#17005E"/>
<path d="M142.671 60.4628C142.546 60.4628 142.396 60.4628 142.271 60.4628C142.047 60.4628 142.047 60.1133 142.271 60.1133C142.396 60.1133 142.546 60.1133 142.671 60.1133C142.896 60.1133 142.896 60.4628 142.671 60.4628Z" fill="#17005E"/>
<path d="M134.607 64.7067L131.661 65.4807L133.009 66.5293C133.384 66.8039 133.858 66.9287 134.307 66.8288C135.056 66.679 135.531 65.98 135.406 65.231C135.356 64.8565 134.981 64.6318 134.607 64.7067Z" fill="#17005E" stroke="#17005E" stroke-width="0.674081" stroke-miterlimit="10" stroke-linecap="round" stroke-linejoin="round"/>
<path d="M46.4521 75.817H76.3862V74.5687C76.3862 73.7448 75.7121 73.0957 74.9132 73.0957H46.477V75.817H46.4521Z" fill="#17005E" stroke="#17005E" stroke-width="0.674081" stroke-miterlimit="10" stroke-linecap="round" stroke-linejoin="round"/>
<path d="M46.0776 75.8169H67.2987L62.4054 58.6403C62.2556 58.141 61.8312 57.8164 61.3069 57.8164H40.5352C39.7862 57.8164 39.237 58.5404 39.4367 59.2644L43.631 73.9943C43.9805 75.0679 44.9542 75.8169 46.0776 75.8169Z" fill="#17005E" stroke="#17005E" stroke-width="0.674081" stroke-miterlimit="10" stroke-linecap="round" stroke-linejoin="round"/>
<path d="M46.1275 71.323H64.103L60.9573 60.2631C60.8575 59.9385 60.5828 59.7388 60.2583 59.7388H42.5824C42.108 59.7388 41.7585 60.2131 41.8833 60.6625L44.5797 70.1496C44.7794 70.8486 45.4035 71.323 46.1275 71.323Z" fill="#FDE7D0" stroke="#17005E" stroke-width="0.674081" stroke-miterlimit="10" stroke-linecap="round" stroke-linejoin="round"/>
<path d="M53.6173 63.5588L51.1207 65.4063C50.946 65.5311 51.0458 65.8057 51.2705 65.9056L54.7907 67.3536C55.0404 67.4535 55.2401 67.3037 55.1652 67.079L54.1416 63.7585C54.0917 63.5588 53.7921 63.4339 53.6173 63.5588Z" fill="#FDE7D0" stroke="#17005E" stroke-width="0.674081" stroke-miterlimit="10" stroke-linecap="round" stroke-linejoin="round"/>
<path d="M48.1997 64.2824L46.5519 65.4558C46.4521 65.5307 46.502 65.7304 46.6518 65.7803L48.9986 66.779C49.1484 66.8539 49.2982 66.754 49.2483 66.6042L48.5242 64.4322C48.4993 64.2824 48.2996 64.1825 48.1997 64.2824Z" fill="#17005E" stroke="#17005E" stroke-width="0.674081" stroke-miterlimit="10" stroke-linecap="round" stroke-linejoin="round"/>
<path d="M46.502 66.7292L45.7779 64.5571H45.3535L46.0775 66.7292H46.502Z" fill="#17005E" stroke="#17005E" stroke-width="0.674081" stroke-miterlimit="10" stroke-linecap="round" stroke-linejoin="round"/>
<path d="M57.9115 66.879L59.5592 65.7056C59.6591 65.6307 59.6092 65.431 59.4594 65.381L57.1126 64.3824C56.9628 64.3075 56.813 64.4074 56.8629 64.5572L57.5869 66.7292C57.5869 66.879 57.7867 66.9539 57.9115 66.879Z" fill="#17005E" stroke="#17005E" stroke-width="0.674081" stroke-miterlimit="10" stroke-linecap="round" stroke-linejoin="round"/>
<path d="M59.6091 64.4321L60.3082 66.6042H60.7576L60.0336 64.4321H59.6091Z" fill="#17005E" stroke="#17005E" stroke-width="0.674081" stroke-miterlimit="10" stroke-linecap="round" stroke-linejoin="round"/>
<path d="M84.0509 88.0499L90.5919 80.1357L87.9455 78.438L81.5043 85.8279L84.0509 88.0499Z" fill="#FDE7D0" stroke="#17005E" stroke-width="0.674081" stroke-miterlimit="10" stroke-linecap="round" stroke-linejoin="round"/>
<path d="M81.6041 87.9252C82.6028 88.799 83.9759 88.8739 84.625 88.0999C85.2991 87.326 85.0245 86.0028 84.0258 85.129C83.0272 84.2552 81.6541 84.1803 81.0049 84.9542C80.3309 85.7282 80.6055 87.0514 81.6041 87.9252Z" fill="#FDE7D0" stroke="#17005E" stroke-width="0.674081" stroke-miterlimit="10" stroke-linecap="round" stroke-linejoin="round"/>
<path d="M81.1306 88.4682C80.1312 87.6002 79.8634 86.2721 80.5325 85.5018C81.2015 84.7314 82.554 84.8105 83.5534 85.6785C84.5528 86.5464 84.8206 87.8745 84.1515 88.6448C83.4825 89.4152 82.13 89.3361 81.1306 88.4682Z" fill="#FDE7D0" stroke="#17005E" stroke-width="0.674081" stroke-miterlimit="10" stroke-linecap="round" stroke-linejoin="round"/>
<path d="M81.5793 87.9751C82.2034 88.5243 83.0772 88.5742 83.5016 88.0999C83.9261 87.6006 83.7513 86.7767 83.1271 86.2025C82.503 85.6532 81.6292 85.6033 81.2048 86.0776C80.7554 86.577 80.9301 87.4258 81.5793 87.9751Z" fill="#F48914" stroke="#17005E" stroke-width="0.674081" stroke-miterlimit="10" stroke-linecap="round" stroke-linejoin="round"/>
<path d="M190.73 240.966H115.383" stroke="#17005E" stroke-width="1.34816" stroke-miterlimit="10" stroke-linecap="round" stroke-linejoin="round"/>
<path d="M104.074 240.966H67.4735" stroke="#17005E" stroke-width="1.34816" stroke-miterlimit="10" stroke-linecap="round" stroke-linejoin="round"/>
<path d="M241.211 184.269L236.368 179.425C235.744 178.801 234.72 178.801 234.096 179.425L233.672 179.85C233.048 180.474 233.048 181.497 233.672 182.121L238.515 186.965C239.139 187.589 240.163 187.589 240.787 186.965L241.211 186.54C241.836 185.916 241.836 184.893 241.211 184.269Z" fill="#FAD1E8"/>
<path d="M41.636 227.248C40.0416 226.593 39.2797 224.77 39.9343 223.175C40.5889 221.581 42.4121 220.819 44.0066 221.474C45.601 222.128 46.3629 223.951 45.7083 225.546C45.0537 227.14 43.2305 227.902 41.636 227.248Z" fill="#FDE7D0"/>
<path d="M40.685 136.309C40.8098 136.184 40.8847 136.034 40.8847 135.86V133.138H43.606C43.9555 133.138 44.2551 132.864 44.2551 132.489V129.144C44.2551 128.794 43.9805 128.495 43.606 128.495C43.2565 128.495 42.9569 128.794 42.9569 129.144V131.865H40.2356C39.8861 131.865 39.5865 132.14 39.5865 132.514V135.235H36.8652C36.5157 135.235 36.2161 135.51 36.2161 135.885C36.2161 136.234 36.4907 136.534 36.8652 136.534H40.2106C40.3854 136.509 40.5602 136.434 40.685 136.309Z" fill="#E9D1FA"/>
<path d="M38.2383 133.887C38.3631 133.763 38.438 133.613 38.438 133.438V130.717H41.1343C41.4839 130.717 41.7834 130.417 41.7834 130.068V126.722C41.7834 126.373 41.5088 126.073 41.1343 126.073C40.7848 126.073 40.4852 126.348 40.4852 126.722V129.443H37.7639C37.4144 129.443 37.1148 129.743 37.1148 130.093V132.814H34.3935C34.044 132.814 33.7444 133.088 33.7444 133.463C33.7444 133.812 34.019 134.112 34.3935 134.112H37.739C37.9637 134.062 38.1135 133.987 38.2383 133.887Z" fill="#E9D1FA"/>
<path d="M221.089 29.2051C220.889 29.2051 220.69 29.28 220.54 29.4298L218.193 31.7766L215.846 29.4298C215.547 29.1302 215.047 29.1302 214.723 29.4298L211.802 32.3508C211.502 32.6504 211.502 33.1497 211.802 33.4743C212.101 33.7738 212.601 33.7738 212.925 33.4743L215.272 31.1275L217.619 33.4743C217.918 33.7738 218.418 33.7738 218.742 33.4743L221.089 31.1275L223.436 33.4743C223.735 33.7738 224.235 33.7738 224.559 33.4743C224.859 33.1747 224.859 32.6753 224.559 32.3508L221.638 29.4298C221.488 29.28 221.289 29.2051 221.089 29.2051Z" fill="#E9D1FA"/>
<path d="M221.089 33.4492C220.889 33.4492 220.69 33.5241 220.54 33.6739L218.193 36.0207L215.846 33.6739C215.547 33.3743 215.047 33.3743 214.723 33.6739L211.802 36.5949C211.502 36.8945 211.502 37.3938 211.802 37.7184C212.101 38.018 212.601 38.018 212.925 37.7184L215.272 35.3716L217.619 37.7184C217.918 38.018 218.418 38.018 218.742 37.7184L221.089 35.3716L223.436 37.7184C223.735 38.018 224.235 38.018 224.559 37.7184C224.859 37.4188 224.859 36.9195 224.559 36.5949L221.638 33.6739C221.488 33.5241 221.289 33.4492 221.089 33.4492Z" fill="#E9D1FA"/>
<path d="M244.931 143.275C244.931 143.774 245.331 144.148 245.805 144.148C246.304 144.148 246.679 143.749 246.679 143.275C246.679 142.775 246.279 142.401 245.805 142.401C245.331 142.376 244.931 142.775 244.931 143.275Z" fill="#FAD1E8"/>
<path d="M242.235 143.275C242.235 143.774 242.635 144.148 243.109 144.148C243.608 144.148 243.983 143.749 243.983 143.275C243.983 142.775 243.583 142.401 243.109 142.401C242.61 142.376 242.235 142.775 242.235 143.275Z" fill="#FAD1E8"/>
<path d="M239.514 143.274C239.514 143.774 239.913 144.148 240.388 144.148C240.862 144.148 241.261 143.749 241.261 143.274C241.261 142.775 240.862 142.401 240.388 142.401C239.913 142.401 239.514 142.775 239.514 143.274Z" fill="#FAD1E8"/>
<path d="M245.805 138.93C245.323 138.93 244.931 138.539 244.931 138.057C244.931 137.574 245.323 137.183 245.805 137.183C246.288 137.183 246.679 137.574 246.679 138.057C246.679 138.539 246.288 138.93 245.805 138.93Z" fill="#FAD1E8"/>
<path d="M242.235 138.057C242.235 138.556 242.635 138.93 243.109 138.93C243.608 138.93 243.983 138.531 243.983 138.057C243.983 137.582 243.583 137.183 243.109 137.183C242.61 137.183 242.235 137.557 242.235 138.057Z" fill="#FAD1E8"/>
<path d="M240.413 138.93C239.93 138.93 239.539 138.539 239.539 138.057C239.539 137.574 239.93 137.183 240.413 137.183C240.895 137.183 241.286 137.574 241.286 138.057C241.286 138.539 240.895 138.93 240.413 138.93Z" fill="#FAD1E8"/>
<path d="M244.931 140.653C244.931 141.152 245.331 141.527 245.805 141.527C246.304 141.527 246.679 141.127 246.679 140.653C246.679 140.154 246.279 139.779 245.805 139.779C245.331 139.779 244.931 140.179 244.931 140.653Z" fill="#FAD1E8"/>
<path d="M242.235 140.653C242.235 141.152 242.635 141.527 243.109 141.527C243.608 141.527 243.983 141.127 243.983 140.653C243.983 140.154 243.583 139.779 243.109 139.779C242.61 139.779 242.235 140.179 242.235 140.653Z" fill="#FAD1E8"/>
<path d="M239.514 140.653C239.514 141.152 239.913 141.527 240.388 141.527C240.862 141.527 241.261 141.127 241.261 140.653C241.261 140.154 240.862 139.779 240.388 139.779C239.913 139.779 239.514 140.179 239.514 140.653Z" fill="#FAD1E8"/>
<path d="M45.3285 40.9143C45.3285 41.7132 45.9777 42.3624 46.7766 42.3624C47.5755 42.3624 48.2246 41.7132 48.2246 40.9143C48.2246 40.1154 47.5755 39.4663 46.7766 39.4663C45.9777 39.4663 45.3285 40.1154 45.3285 40.9143Z" fill="#FAD1E8"/>
<path d="M41.1592 40.9143C41.1592 41.7132 41.8084 42.3624 42.6073 42.3624C43.4062 42.3624 44.0553 41.7132 44.0553 40.9143C44.0553 40.1154 43.4062 39.4663 42.6073 39.4663C41.8084 39.4663 41.1592 40.1154 41.1592 40.9143Z" fill="#FAD1E8"/>
<path d="M45.3285 45.1585C45.3285 45.9574 45.9777 46.6065 46.7766 46.6065C47.5755 46.6065 48.2246 45.9574 48.2246 45.1585C48.2246 44.3596 47.5755 43.7104 46.7766 43.7104C45.9777 43.7354 45.3285 44.3596 45.3285 45.1585Z" fill="#FAD1E8"/>
<path d="M41.1592 45.1585C41.1592 45.9574 41.8084 46.6065 42.6073 46.6065C43.4062 46.6065 44.0553 45.9574 44.0553 45.1585C44.0553 44.3596 43.4062 43.7104 42.6073 43.7104C41.8084 43.7354 41.1592 44.3596 41.1592 45.1585Z" fill="#FAD1E8"/>
<path d="M9.84805 197.562H45.7741C47.0224 197.562 48.021 196.563 48.021 195.315V171.397C48.021 170.149 47.0224 169.15 45.7741 169.15H9.82309C8.57479 169.15 7.57615 170.149 7.57615 171.397V195.315C7.60112 196.563 8.59975 197.562 9.84805 197.562Z" fill="#CFAFEB" stroke="#17005E" stroke-width="0.674081" stroke-miterlimit="10" stroke-linecap="round" stroke-linejoin="round"/>
<path d="M30.6696 177.464L24.2534 181.159C23.829 181.409 23.829 182.033 24.2534 182.282L30.6696 185.977C31.0941 186.227 31.6433 185.902 31.6433 185.403V178.013C31.6433 177.514 31.0941 177.214 30.6696 177.464Z" fill="#FDE7D0" stroke="#17005E" stroke-width="0.674081" stroke-miterlimit="10" stroke-linecap="round" stroke-linejoin="round"/>
<path d="M10.8717 193.367C10.8717 193.617 11.0715 193.792 11.2962 193.792C11.5209 193.792 11.7206 193.592 11.7206 193.367C11.7206 193.118 11.5209 192.943 11.2962 192.943C11.0715 192.943 10.8717 193.118 10.8717 193.367Z" fill="#17005E" stroke="#17005E" stroke-width="0.674081" stroke-miterlimit="10" stroke-linecap="round" stroke-linejoin="round"/>
<path d="M40.6062 193.367H11.3211" stroke="#17005E" stroke-width="0.674081" stroke-miterlimit="10" stroke-linecap="round" stroke-linejoin="round"/>
<path d="M12.9689 171.472H9.948" stroke="#17005E" stroke-width="0.674081" stroke-miterlimit="10" stroke-linecap="round" stroke-linejoin="round"/>
<path d="M12.9689 172.72H9.948" stroke="#17005E" stroke-width="0.674081" stroke-miterlimit="10" stroke-linecap="round" stroke-linejoin="round"/>
<path d="M12.9689 173.969H9.948" stroke="#17005E" stroke-width="0.674081" stroke-miterlimit="10" stroke-linecap="round" stroke-linejoin="round"/>
<path d="M42.9529 192.519H45.1499V194.216H42.9529V192.519Z" fill="#F5A3D2" stroke="#17005E" stroke-width="0.674081" stroke-miterlimit="10" stroke-linecap="round" stroke-linejoin="round"/>
<path d="M220.551 71.7756H265.789C267.038 71.7756 268.036 70.7769 268.036 69.5286V39.0702C268.036 37.8219 267.038 36.8232 265.789 36.8232H220.551C219.303 36.8232 218.304 37.8219 218.304 39.0702V69.5037C218.304 70.752 219.303 71.7756 220.551 71.7756Z" fill="#FDE7D0" stroke="#17005E" stroke-width="0.674081" stroke-miterlimit="10" stroke-linecap="round" stroke-linejoin="round"/>
<path d="M246.69 47.0343L238.776 51.5781C238.227 51.8777 238.227 52.6516 238.776 52.9762L246.69 57.52C247.215 57.8196 247.889 57.4451 247.889 56.8209V47.7333C247.889 47.1092 247.215 46.7347 246.69 47.0343Z" fill="#DC4298" stroke="#17005E" stroke-width="0.674081" stroke-miterlimit="10" stroke-linecap="round" stroke-linejoin="round"/>
<path d="M242.746 66.6078C242.746 66.9074 242.996 67.1321 243.27 67.1321C243.545 67.1321 243.794 66.8824 243.794 66.6078C243.794 66.3082 243.545 66.0835 243.27 66.0835C242.996 66.0835 242.746 66.3082 242.746 66.6078Z" fill="#17005E" stroke="#17005E" stroke-width="0.674081" stroke-miterlimit="10" stroke-linecap="round" stroke-linejoin="round"/>
<path d="M258.924 66.6074H222.873" stroke="#17005E" stroke-width="0.674081" stroke-miterlimit="10" stroke-linecap="round" stroke-linejoin="round"/>
<path d="M224.895 39.6943H221.175" stroke="#17005E" stroke-width="0.674081" stroke-miterlimit="10" stroke-linecap="round" stroke-linejoin="round"/>
<path d="M224.895 41.2173H221.175" stroke="#17005E" stroke-width="0.674081" stroke-miterlimit="10" stroke-linecap="round" stroke-linejoin="round"/>
<path d="M224.895 42.7402H221.175" stroke="#17005E" stroke-width="0.674081" stroke-miterlimit="10" stroke-linecap="round" stroke-linejoin="round"/>
<path d="M261.795 65.5591H264.491V67.6313H261.795V65.5591Z" fill="#E9D1FA" stroke="#17005E" stroke-width="0.674081" stroke-miterlimit="10" stroke-linecap="round" stroke-linejoin="round"/>
<path d="M199.396 230.263H241.738C242.986 230.263 243.985 229.265 243.985 228.016V199.605C243.985 198.357 242.986 197.358 241.738 197.358H199.396C198.147 197.358 197.149 198.357 197.149 199.605V228.016C197.149 229.24 198.147 230.263 199.396 230.263Z" fill="#DC4298" stroke="#17005E" stroke-width="0.674081" stroke-miterlimit="10" stroke-linecap="round" stroke-linejoin="round"/>
<path d="M223.862 206.97L216.422 211.239C215.923 211.539 215.923 212.263 216.422 212.562L223.862 216.832C224.362 217.131 224.986 216.757 224.986 216.182V207.619C225.011 207.045 224.362 206.67 223.862 206.97Z" fill="#E9D1FA" stroke="#17005E" stroke-width="0.674081" stroke-miterlimit="10" stroke-linecap="round" stroke-linejoin="round"/>
<path d="M209.257 225.395C209.257 225.669 209.482 225.894 209.756 225.894C210.031 225.894 210.256 225.669 210.256 225.395C210.256 225.12 210.031 224.896 209.756 224.896C209.482 224.896 209.257 225.12 209.257 225.395Z" fill="#17005E" stroke="#17005E" stroke-width="0.674081" stroke-miterlimit="10" stroke-linecap="round" stroke-linejoin="round"/>
<path d="M235.396 225.395H201.443" stroke="#17005E" stroke-width="0.674081" stroke-miterlimit="10" stroke-linecap="round" stroke-linejoin="round"/>
<path d="M203.365 200.054H199.845" stroke="#17005E" stroke-width="0.674081" stroke-miterlimit="10" stroke-linecap="round" stroke-linejoin="round"/>
<path d="M203.365 201.478H199.845" stroke="#17005E" stroke-width="0.674081" stroke-miterlimit="10" stroke-linecap="round" stroke-linejoin="round"/>
<path d="M203.365 202.901H199.845" stroke="#17005E" stroke-width="0.674081" stroke-miterlimit="10" stroke-linecap="round" stroke-linejoin="round"/>
<path d="M238.093 224.421H240.639V226.393H238.093V224.421Z" fill="#FDE7D0" stroke="#17005E" stroke-width="0.674081" stroke-miterlimit="10" stroke-linecap="round" stroke-linejoin="round"/>
<path d="M165.5 146L401.5 315L436.5 779.5L467 881.5" stroke="black"/>
</g>
<defs>
<filter id="filter0_f_19_466" x="13.1624" y="5.53248" width="250.578" height="251.117" filterUnits="userSpaceOnUse" color-interpolation-filters="sRGB">
<feFlood flood-opacity="0" result="BackgroundImageFix"/>
<feBlend mode="normal" in="SourceGraphic" in2="BackgroundImageFix" result="shape"/>
<feGaussianBlur stdDeviation="22.4694" result="effect1_foregroundBlur_19_466"/>
</filter>
<clipPath id="clip0_19_466">
<rect width="269.632" height="269.632" fill="white" transform="matrix(-1 0 0 1 270.571 0.319336)"/>
</clipPath>
</defs>
</svg>
